HIERARCHY
ROOT root
{
	OFFSET	0	13.1	24.9
	CHANNELS 6  Xposition Yposition Zposition Xrotation Yrotation Zrotation
	JOINT spine_1
	{
		OFFSET	0	9.99999	0
		CHANNELS 3  Xrotation Yrotation Zrotation
		JOINT spine_2
		{
			OFFSET	0	112	-10
			CHANNELS 3  Xrotation Yrotation Zrotation
			JOINT spine_3
			{
				OFFSET	0	206.5	19.3
				CHANNELS 3  Xrotation Yrotation Zrotation
				JOINT spine_4
				{
					OFFSET	0	110.4	14.6
					CHANNELS 3  Xrotation Yrotation Zrotation
					JOINT neck_1
					{
						OFFSET	0	71.8	-50.3
						CHANNELS 3  Xrotation Yrotation Zrotation
						JOINT neck_2
						{
							OFFSET	0	86.2	-25.8
							CHANNELS 3  Xrotation Yrotation Zrotation
							JOINT head_ee
							{
								OFFSET	0	179.8	-8.7
								CHANNELS 3  Xrotation Yrotation Zrotation
								End Site
								{
									OFFSET	1	0	0
								}
							}
						}
					}
					JOINT left_clavicle
					{
						OFFSET	-43.2	22.4	-70.8
						CHANNELS 3  Xrotation Yrotation Zrotation
						JOINT left_shoulder
						{
							OFFSET	-93.9	-5.79999	48.7
							CHANNELS 3  Xrotation Yrotation Zrotation
							JOINT left_elbow
							{
								OFFSET	-291.4	-30.8	15.2
								CHANNELS 3  Xrotation Yrotation Zrotation
								JOINT left_lowarm_twist
								{
									OFFSET	-110.7	-3.89999	13.6
									CHANNELS 3  Xrotation Yrotation Zrotation
									JOINT left_hand
									{
										OFFSET	-110.7	-3.89999	13.6
										CHANNELS 3  Xrotation Yrotation Zrotation
										JOINT left_ee
										{
											OFFSET	-80.8	-5.10001	12.1
											CHANNELS 3  Xrotation Yrotation Zrotation
											End Site
											{
												OFFSET	1	0	0
											}
										}
									}
								}
							}
						}
					}
					JOINT right_clavicle
					{
						OFFSET	43.2	22.4	-70.8
						CHANNELS 3  Xrotation Yrotation Zrotation
						JOINT right_shoulder
						{
							OFFSET	93.9	-5.79999	48.7
							CHANNELS 3  Xrotation Yrotation Zrotation
							JOINT right_elbow
							{
								OFFSET	291.4	-30.8	15.2
								CHANNELS 3  Xrotation Yrotation Zrotation
								JOINT right_lowarm_twist
								{
									OFFSET	110.7	-3.89999	13.6
									CHANNELS 3  Xrotation Yrotation Zrotation
									JOINT right_hand
									{
										OFFSET	110.7	-3.89999	13.6
										CHANNELS 3  Xrotation Yrotation Zrotation
										JOINT right_ee
										{
											OFFSET	80.8	-5.10001	12.1
											CHANNELS 3  Xrotation Yrotation Zrotation
											End Site
											{
												OFFSET	1	0	0
											}
										}
									}
								}
							}
						}
					}
				}
			}
		}
	}
	JOINT left_hip
	{
		OFFSET	-82.8	-127.5	0.300001
		CHANNELS 3  Xrotation Yrotation Zrotation
		JOINT left_knee
		{
			OFFSET	-28.2	-396.7	2.2
			CHANNELS 3  Xrotation Yrotation Zrotation
			JOINT left_ankle
			{
				OFFSET	-11.7	-411.3	35.4
				CHANNELS 3  Xrotation Yrotation Zrotation
				JOINT left_toes
				{
					OFFSET	0	-60	-88.6
					CHANNELS 3  Xrotation Yrotation Zrotation
					JOINT left_foot_ee
					{
						OFFSET	-22.5	-16.5	-42.2
						CHANNELS 3  Xrotation Yrotation Zrotation
						End Site
						{
							OFFSET	1	0	0
						}
					}
				}
			}
		}
	}
	JOINT right_hip
	{
		OFFSET	82.8	-127.5	0.300001
		CHANNELS 3  Xrotation Yrotation Zrotation
		JOINT right_knee
		{
			OFFSET	28.2	-396.7	2.2
			CHANNELS 3  Xrotation Yrotation Zrotation
			JOINT right_ankle
			{
				OFFSET	11.7	-411.3	35.4
				CHANNELS 3  Xrotation Yrotation Zrotation
				JOINT right_toes
				{
					OFFSET	0	-60	-88.6
					CHANNELS 3  Xrotation Yrotation Zrotation
					JOINT right_foot_ee
					{
						OFFSET	22.5	-16.5	-42.2
						CHANNELS 3  Xrotation Yrotation Zrotation
						End Site
						{
							OFFSET	1	0	0
						}
					}
				}
			}
		}
	}
}
MOTION
Frames: 13
Frame Time: 0.02
1372.05 701.618 -1475.22 1.08750417421 23.2075766079 1.18894366721 -0.13245 -0.0708646 -0.589282 -0.132257 -0.0332242 -0.592597 -0.131811 0.093419 -0.586129 -0.13229 -0.000319919 -0.593527 4.06382 15.0742 -2.74723 5.14457 28.4599 -2.4799 -0.0 0.0 -0.0 5.23892 4.21048 10.2215 -11.3727 -29.0112 56.509 1.86436 -42.7198 0.729186 -43.2951 -3.30822 4.28715 -2.59224 -3.6982 -19.3766 -0.0 0.0 -0.0 10.5459 -1.38629 -20.7013 -12.7007 -26.8152 -56.5317 0.815543 21.9984 -0.158516 62.4174 1.99381 7.32636 0.657538 -0.887677 -4.75983 0.0 0.0 0.0 -5.65524 51.4578 -10.3289 -24.0457 0.225715 3.6561 33.6687 -30.1082 -5.25458 -14.8781 0.0 0.0 -0.0 0.0 -0.0 21.955 -5.2447 -9.61113 0.868598 0.0367405 0.128226 11.8173 4.08922 1.7052 -26.6186 0.0 0.0 0.0 0.0 0.0 
1372.05 701.618 -1475.22 1.08451366473 22.8363265647 1.19659035062 -0.13245 -0.0708646 -0.589282 -0.132257 -0.0332242 -0.592597 -0.131811 0.093419 -0.586129 -0.13229 -0.000319919 -0.593527 4.06382 15.0742 -2.74723 5.14457 28.4599 -2.4799 -0.0 0.0 -0.0 5.23892 4.21048 10.2215 -11.3727 -29.0112 56.509 1.86436 -42.7198 0.729186 -43.2951 -3.30822 4.28715 -2.59224 -3.6982 -19.3766 -0.0 0.0 -0.0 10.5459 -1.38629 -20.7013 -12.7007 -26.8152 -56.5317 0.815543 21.9984 -0.158516 62.4174 1.99381 7.32636 0.657538 -0.887677 -4.75983 0.0 0.0 0.0 -5.65524 51.4578 -10.3289 -24.0457 0.225715 3.6561 33.6687 -30.1082 -5.25458 -14.8781 0.0 0.0 -0.0 0.0 -0.0 21.955 -5.2447 -9.61113 0.868598 0.0367405 0.128226 11.8173 4.08922 1.7052 -26.6186 0.0 0.0 0.0 0.0 0.0 
1362.21051936 699.383 -1493.16411939 0.466377862075 23.5449040146 1.76264569953 0.21382 -0.0220694 -0.67014 0.21407 0.020617 -0.670186 0.21392 0.15859 -0.651479 0.213331 0.0537129 -0.668348 4.64794 14.6549 -3.75576 5.83634 28.4887 -3.79583 -0.0 0.0 -0.0 5.18419 4.30404 10.1204 -12.152 -27.3172 57.9188 1.78978 -41.5564 0.679142 -43.3467 -3.31391 4.29053 -2.50039 -3.58848 -18.6706 -0.0 0.0 -0.0 10.5209 -0.487301 -20.7067 -11.1165 -27.9081 -56.5766 0.662167 18.1605 -0.105829 62.1376 1.96788 7.30154 0.646712 -0.215457 -4.41163 0.0 0.0 0.0 -4.36186 50.5035 -12.0314 -25.3936 0.192766 3.86032 35.335 -32.013 -5.57667 -14.7359 0.0 0.0 -0.0 0.0 -0.0 21.514 -5.43266 -9.78438 1.47202 0.0634095 0.216978 12.5191 4.6692 1.80536 -25.4805 0.0 0.0 0.0 0.0 0.0 
1362.46597413 699.383 -1493.30184858 0.463560033189 22.73239272 1.76981634307 0.21382 -0.0220694 -0.67014 0.21407 0.020617 -0.670186 0.21392 0.15859 -0.651479 0.213331 0.0537129 -0.668348 4.64794 14.6549 -3.75576 5.83634 28.4887 -3.79583 -0.0 0.0 -0.0 5.18419 4.30404 10.1204 -12.152 -27.3172 57.9188 1.78978 -41.5564 0.679142 -43.3467 -3.31391 4.29053 -2.50039 -3.58848 -18.6706 -0.0 0.0 -0.0 10.5209 -0.487301 -20.7067 -11.1165 -27.9081 -56.5766 0.662167 18.1605 -0.105829 62.1376 1.96788 7.30154 0.646712 -0.215457 -4.41163 0.0 0.0 0.0 -4.36186 50.5035 -12.0314 -25.3936 0.192766 3.86032 35.335 -32.013 -5.57667 -14.7359 0.0 0.0 -0.0 0.0 -0.0 21.514 -5.43266 -9.78438 1.47202 0.0634095 0.216978 12.5191 4.6692 1.80536 -25.4805 0.0 0.0 0.0 0.0 0.0 
1348.95968759 703.302 -1511.82573689 -0.013081053566 23.8925864554 2.49752872353 0.263561 -0.174078 -0.89189 0.263996 -0.116974 -0.901158 0.266053 0.0708353 -0.905953 0.264915 -0.073126 -0.905771 4.66295 14.1658 -4.4146 5.86663 28.2037 -4.57696 -0.0 0.0 -0.0 6.15309 6.78665 11.9282 -13.758 -26.6162 57.5015 1.67533 -39.6863 0.604619 -43.0614 -3.28247 4.27176 -2.31834 -3.67499 -17.4225 -0.0 0.0 -0.0 10.7657 0.839624 -21.2952 -6.86905 -30.0413 -54.1386 0.49359 13.74 -0.0594691 62.4429 1.99618 7.32861 0.579716 -0.0440172 -3.89255 0.0 0.0 0.0 -3.71213 49.2847 -13.1815 -26.6514 0.157692 4.05016 33.7913 -31.9405 -5.39459 -14.6084 0.0 0.0 -0.0 0.0 -0.0 21.399 -6.48634 -9.67929 0.0466301 0.00192306 0.00689739 11.6753 2.12732 1.67459 -25.4189 0.0 0.0 0.0 0.0 0.0 
1333.00388366 705.706 -1539.91673638 -0.296157814407 24.5218284284 2.92007921802 0.407254 -0.27177 -0.942564 0.407723 -0.211244 -0.957945 0.411512 -0.0122452 -0.980881 0.410207 -0.166996 -0.96664 5.25082 14.4225 -3.82084 6.45897 28.0412 -4.00572 -0.0 0.0 -0.0 5.65552 9.33305 11.0014 -15.1826 -26.0539 59.1171 1.57263 -37.9171 0.540259 -41.2184 -3.08166 4.14678 -2.15333 -4.69306 -16.7323 -0.0 0.0 -0.0 10.8792 1.00264 -21.5436 -6.94493 -26.103 -54.3734 0.453543 12.6627 -0.0503231 64.4202 2.18286 7.50021 0.471573 -0.718711 -3.44779 0.0 0.0 0.0 -6.2235 50.3563 -11.6185 -22.3172 0.26092 3.3932 31.2577 -31.8165 -5.08063 -13.9285 0.0 0.0 -0.0 0.0 -0.0 21.8805 -6.63002 -8.8448 -5.01484 -0.173749 -0.749771 16.2017 4.67542 2.3003 -24.4908 0.0 0.0 0.0 0.0 0.0 
1323.95659779 711.558 -1558.25575052 0.683947565491 24.4386371778 2.95481596908 0.370447 -0.278868 -1.13851 0.371145 -0.205861 -1.15394 0.375649 0.0335773 -1.17168 0.373765 -0.151876 -1.16228 3.11025 14.0476 -4.38878 4.16937 28.2108 -4.18389 -0.0 0.0 -0.0 6.04515 9.08187 11.6998 -16.9313 -24.5704 59.7836 1.40596 -34.854 0.441348 -39.5557 -2.90404 4.02857 -2.00978 -5.98056 -16.311 -0.0 0.0 -0.0 10.8145 0.350046 -21.3698 -5.39727 -25.3667 -54.5343 0.41927 11.7334 -0.0430812 63.4832 2.09365 7.41969 0.560337 0.91307 -3.36705 0.0 0.0 0.0 -1.07396 46.7865 -15.236 -28.0227 0.114707 4.25623 34.8795 -32.1926 -5.53848 -16.4146 0.0 0.0 -0.0 0.0 -0.0 20.922 -7.34386 -9.49742 -8.41119 -0.253852 -1.26475 19.3692 4.06402 2.70388 -24.517 0.0 0.0 0.0 0.0 0.0 
1326.34810876 711.558 -1559.59563829 0.675455459829 22.801896363 2.9760084035 0.370447 -0.278868 -1.13851 0.371145 -0.205861 -1.15394 0.375649 0.0335773 -1.17168 0.373765 -0.151876 -1.16228 3.11025 14.0476 -4.38878 4.16937 28.2108 -4.18389 -0.0 0.0 -0.0 6.04515 9.08187 11.6998 -16.9313 -24.5704 59.7836 1.40596 -34.854 0.441348 -39.5557 -2.90404 4.02857 -2.00978 -5.98056 -16.311 -0.0 0.0 -0.0 10.8145 0.350046 -21.3698 -5.39727 -25.3667 -54.5343 0.41927 11.7334 -0.0430812 63.4832 2.09365 7.41969 0.560337 0.91307 -3.36705 0.0 0.0 0.0 -1.07396 46.7865 -15.236 -28.0227 0.114707 4.25623 34.8795 -32.1926 -5.53848 -16.4146 0.0 0.0 -0.0 0.0 -0.0 20.922 -7.34386 -9.49742 -8.41119 -0.253852 -1.26475 19.3692 4.06402 2.70388 -24.517 0.0 0.0 0.0 0.0 0.0 
1312.3193786 716.61 -1583.68490754 1.77287089036 20.0661637831 1.94096787854 0.378087 -0.127341 -1.02157 0.378666 -0.0620815 -1.0276 0.380013 0.148542 -1.0187 0.378564 -0.0141987 -1.02938 -0.0570306 14.4826 -4.23049 0.753271 29.2792 -3.19321 -0.0 0.0 -0.0 5.93021 12.1461 11.433 -18.0418 -23.0657 60.6295 1.22596 -31.2692 0.343105 -37.2398 -2.66251 3.85545 -1.86468 -6.92643 -15.7187 -0.0 0.0 -0.0 10.6343 0.510438 -21.0008 -3.14679 -23.0603 -56.7485 0.392309 10.9979 -0.0377679 62.686 2.01881 7.35005 0.632346 2.28621 -3.28018 0.0 0.0 0.0 -0.298365 38.5094 -13.582 -35.1532 -0.18755 5.30797 36.4857 -28.6099 -5.46791 -16.9389 0.0 0.0 -0.0 0.0 -0.0 19.6129 -8.92211 -8.31661 -11.3058 -0.29793 -1.70667 21.0382 5.95839 2.93332 -25.2896 0.0 0.0 0.0 0.0 0.0 
1302.41155415 721.98 -1597.07667836 2.13102576852 18.9295190767 2.36857989803 0.310996 0.117523 -1.32925 0.311956 0.201861 -1.31908 0.307534 0.467981 -1.2497 0.305452 0.26476 -1.30791 -1.13228 13.7961 -4.25126 -0.480303 28.1908 -2.9956 -0.0 0.0 -0.0 6.42779 14.7653 12.1794 -17.3699 -25.1093 60.9876 0.921936 -24.5458 0.200562 -35.2962 -2.46537 3.70278 -1.86244 -4.31765 -14.5255 -0.0 0.0 -0.0 10.9235 3.64395 -21.7623 0.593988 -26.2418 -54.9117 0.265026 7.47954 -0.0173232 62.4758 1.99923 7.33152 1.10349 6.57466 -4.66287 0.0 0.0 0.0 3.42497 21.4084 -10.9009 -45.4493 -0.849328 6.74366 36.1062 -25.0948 -5.22329 -17.2377 0.0 0.0 -0.0 0.0 -0.0 18.0023 -7.63675 -8.69161 -11.3149 -0.298034 -1.70807 23.4121 6.72888 3.23403 -25.8639 0.0 0.0 0.0 0.0 0.0 
1267.56867405 724.037 -1627.60737818 0.326604654144 27.5025496128 3.64524232699 0.63151 -0.154308 -1.40342 0.632603 -0.0647007 -1.41039 0.634549 0.217777 -1.39498 0.631833 -0.00524531 -1.41187 -0.317416 14.4144 -2.14977 0.298026 27.5247 -0.847433 -0.0 0.0 -0.0 6.11543 22.0878 11.2778 -17.8758 -25.1884 60.5784 0.774148 -20.9813 0.143351 -30.1551 -1.97008 3.26777 -1.90351 -0.545597 -13.0744 -0.0 0.0 -0.0 11.7605 13.6062 -23.6933 4.19691 -20.7731 -56.5431 0.203413 5.75413 -0.0102229 63.4033 2.0861 7.41276 1.70215 9.54998 -7.45412 0.0 0.0 0.0 12.3836 -4.12143 -5.69629 -59.1835 -2.11247 8.43488 32.9419 -26.0259 -4.93082 -15.3018 0.0 0.0 -0.0 0.0 -0.0 18.4695 -10.1074 -7.14522 -15.0324 -0.321724 -2.27786 31.932 14.1807 4.35469 -22.8336 0.0 0.0 0.0 0.0 0.0 
1275.05960005 724.037 -1632.48132016 0.318948330491 24.7309704491 3.66262999687 0.63151 -0.154308 -1.40342 0.632603 -0.0647007 -1.41039 0.634549 0.217777 -1.39498 0.631833 -0.00524531 -1.41187 -0.317416 14.4144 -2.14977 0.298026 27.5247 -0.847433 -0.0 0.0 -0.0 6.11543 22.0878 11.2778 -17.8758 -25.1884 60.5784 0.774148 -20.9813 0.143351 -30.1551 -1.97008 3.26777 -1.90351 -0.545597 -13.0744 -0.0 0.0 -0.0 11.7605 13.6062 -23.6933 4.19691 -20.7731 -56.5431 0.203413 5.75413 -0.0102229 63.4033 2.0861 7.41276 1.70215 9.54998 -7.45412 0.0 0.0 0.0 12.3836 -4.12143 -5.69629 -59.1835 -2.11247 8.43488 32.9419 -26.0259 -4.93082 -15.3018 0.0 0.0 -0.0 0.0 -0.0 18.4695 -10.1074 -7.14522 -15.0324 -0.321724 -2.27786 31.932 14.1807 4.35469 -22.8336 0.0 0.0 0.0 0.0 0.0 
1211.54872889 729.304 -1648.26389435 -0.78377377735 40.5300435403 5.72325574243 1.13458 -0.311018 -2.26747 1.13743 -0.166142 -2.28265 1.14464 0.272085 -2.27246 1.13744 -0.0901258 -2.28691 -1.93722 12.3943 -2.11885 -1.57396 24.071 -0.666554 -0.0 0.0 -0.0 6.27966 23.3876 11.4234 -18.7976 -23.4532 62.0859 0.479257 -13.3555 0.0561114 -28.1031 -1.78367 3.08212 -1.96588 0.862333 -12.844 -0.0 0.0 -0.0 11.4641 16.6009 -22.9106 10.6423 -20.5311 -52.4111 0.258384 7.29413 -0.0164693 62.5716 2.00814 7.33997 2.13325 15.2739 -7.83419 0.0 0.0 0.0 19.5688 -11.9649 -6.48019 -64.1355 -2.6627 8.96474 34.4888 -25.6611 -5.08235 -17.319 0.0 0.0 -0.0 0.0 -0.0 13.1416 -7.34175 -6.944 -11.1691 -0.296352 -1.68576 36.7882 12.1317 4.78848 -24.831 0.0 0.0 0.0 0.0 0.0 
